<svg width="114" height="114" viewBox="0 0 114 114" fill="none" xmlns="http://www.w3.org/2000/svg">
<g clip-path="url(#clip0_1027_672)">
<path d="M47.3315 77.5833C46.1308 77.52 44.9934 76.95 44.1718 76L25.214 57C24.7716 56.1133 24.6452 55.1 24.8348 54.15C25.0244 53.2 25.4667 52.3133 26.1619 51.6167C26.857 50.92 27.7417 50.4767 28.6896 50.2867C29.6375 50.0967 30.6486 50.2867 31.5333 50.6667L47.1419 66.31L101.045 12.6667C101.93 12.2233 102.941 12.0967 103.889 12.2867C104.837 12.4767 105.722 12.92 106.417 13.6167C107.112 14.3133 107.554 15.2 107.744 16.15C107.933 17.1 107.744 18.1133 107.365 19L50.4911 76C49.6696 76.95 48.5322 77.52 47.3315 77.5833Z" fill="#0066FF"/>
<path d="M56.8105 114C46.6364 114 36.6519 111.213 27.9313 106.02C19.2107 100.827 12.0067 93.3533 7.07765 84.4867C3.34927 77.8367 1.07432 70.49 0.316007 62.89C-0.821465 51.7433 1.32709 40.5333 6.44572 30.59C11.6275 20.6467 19.5898 12.4767 29.3847 7.09335C36.02 3.35668 43.3504 1.07668 50.9335 0.316678C58.4535 -0.506655 66.0998 0.253345 73.367 2.47001C73.9989 2.59668 74.6309 2.85001 75.1364 3.23001C75.7051 3.61001 76.1475 4.11668 76.4635 4.68668C76.7794 5.25668 77.0322 5.89001 77.0954 6.52335C77.1586 7.15668 77.0954 7.85335 76.9058 8.48668C76.7162 9.12001 76.4003 9.69001 75.9579 10.1967C75.5156 10.7033 75.01 11.0833 74.3781 11.4C73.8094 11.7167 73.1142 11.8433 72.4823 11.8433C71.8504 11.8433 71.1553 11.7167 70.5233 11.4633C64.3936 9.62668 57.9479 8.99335 51.5654 9.69001C45.2462 10.3233 39.1796 12.2233 33.6187 15.3267C28.3105 18.3033 23.571 22.23 19.7162 26.98C15.7351 31.7933 12.8282 37.3667 10.9956 43.3833C9.22621 49.4 8.65747 55.67 9.35259 61.8767C9.98452 68.21 11.8803 74.29 14.9768 79.8633C17.9468 85.1833 21.8648 89.9333 26.6043 93.7967C31.4069 97.7867 36.9679 100.7 42.9712 102.537C48.9745 104.31 55.2306 104.88 61.4235 104.183C67.7428 103.55 73.8094 101.65 79.3703 98.5467C84.6785 95.57 89.418 91.6433 93.2728 86.8933C97.2539 82.08 100.161 76.5067 101.993 70.49C103.763 64.4733 104.332 58.2033 103.636 51.9967C103.636 51.3633 103.636 50.6667 103.826 50.0333C104.016 49.4 104.332 48.83 104.774 48.3233C105.216 47.8167 105.722 47.3733 106.291 47.12C106.859 46.8033 107.491 46.6133 108.123 46.55C108.755 46.55 109.45 46.55 110.082 46.74C110.714 46.93 111.283 47.2467 111.788 47.69C112.294 48.1333 112.736 48.64 112.989 49.21C113.305 49.78 113.494 50.4133 113.558 51.0467C114.695 62.1933 112.547 73.4033 107.365 83.3467C102.183 93.29 94.2207 101.46 84.4258 106.843C77.7273 110.707 70.2705 113.177 62.561 113.937H56.6841L56.8105 114Z" fill="#E8E8E8"/>
</g>
<defs>
<clipPath id="clip0_1027_672">
<rect width="114" height="114" fill="white"/>
</clipPath>
</defs>
</svg>
