<svg width="57" height="23" viewBox="0 0 57 23" fill="none" xmlns="http://www.w3.org/2000/svg">
<rect x="1.00012" width="56" height="19" rx="9.5" fill="#FF7A00"/>
<path d="M3.35344 20.1073C2.98462 20.3002 2.55536 19.9843 2.62978 19.5748L3.37503 15.4742C3.44114 15.1105 3.86552 14.9418 4.1633 15.1609L7.11123 17.33C7.40901 17.5492 7.37423 18.0045 7.04661 18.1758L3.35344 20.1073Z" fill="#FF7A00"/>
<path d="M15.2142 13.508V5.276H16.6902V8.672H20.1942V5.276H21.6702V13.508H20.1942V9.836H16.6902V13.508H15.2142ZM26.8808 13.64C24.6608 13.64 23.1848 12.248 23.1848 9.524V9.26C23.1848 6.608 24.7088 5.144 26.9528 5.144C29.1488 5.144 30.6488 6.512 30.6488 9.26V9.524C30.6488 12.188 29.1128 13.64 26.8808 13.64ZM26.9288 12.5C28.3688 12.5 29.0768 11.36 29.0768 9.68V9.272C29.0768 7.424 28.4768 6.308 26.8808 6.296C25.4528 6.296 24.7568 7.424 24.7568 9.092V9.512C24.7568 11.372 25.3568 12.5 26.9288 12.5ZM33.8872 13.508V6.44H31.5232V5.276H37.7032V6.44H35.3632V13.508H33.8872ZM39.1347 11.12L38.9427 4.964H40.5027L40.3347 11.12H39.1347ZM39.0147 13.676V12.272H40.4547V13.676H39.0147ZM42.4863 11.12L42.2943 4.964H43.8543L43.6863 11.12H42.4863ZM42.3663 13.676V12.272H43.8063V13.676H42.3663Z" fill="white"/>
</svg>
