<svg width="57" height="23" viewBox="0 0 57 23" fill="none" xmlns="http://www.w3.org/2000/svg">
<rect x="1.00012" width="56" height="19" rx="9.5" fill="#0066FF"/>
<path d="M3.35344 20.1073C2.98462 20.3002 2.55536 19.9843 2.62978 19.5748L3.37503 15.4742C3.44114 15.1105 3.86552 14.9418 4.1633 15.1609L7.11123 17.33C7.40901 17.5492 7.37423 18.0045 7.04661 18.1758L3.35344 20.1073Z" fill="#0066FF"/>
<path d="M19.2662 9.62H17.8742V4.256H19.2662V9.62ZM19.6022 14.864H12.2342V11.996H17.8742V11.264H12.1742V10.148H19.2662V13.016H13.6622V13.736H19.6022V14.864ZM16.9262 8.516L16.1582 9.56C15.3302 9.248 14.2262 8.432 13.7462 7.448C13.4342 8.54 12.2702 9.5 11.2742 9.836L10.4582 8.792C12.0062 8.228 13.0142 6.992 13.0142 5.372V4.58H14.4662V5.3C14.4662 6.944 15.6782 8.12 16.9262 8.516ZM29.661 14.948H28.257V4.256H29.661V14.948ZM27.453 11.468L26.637 12.524C25.761 11.984 24.645 10.688 24.285 9.572C23.937 10.796 22.833 12.152 21.729 12.752L20.877 11.72C22.605 10.604 23.529 8.912 23.529 6.788V5.156H24.981V6.716C24.981 8.828 25.833 10.424 27.453 11.468ZM41.0878 8.456H39.5638V11.996H38.1478V4.256H39.5638V7.304H41.0878V8.456ZM36.5758 5.072C36.5638 8.156 34.3558 10.136 31.7518 10.796L31.0558 9.68C32.8438 9.368 34.7158 8.108 35.0638 6.236H31.5958V5.072H36.5758ZM39.8278 14.636H32.6878V11.192H34.1038V13.52H39.8278V14.636ZM42.3027 11.12L42.1107 4.964H43.6707L43.5027 11.12H42.3027ZM42.1827 13.676V12.272H43.6227V13.676H42.1827ZM45.6542 11.12L45.4622 4.964H47.0222L46.8542 11.12H45.6542ZM45.5342 13.676V12.272H46.9742V13.676H45.5342Z" fill="white"/>
</svg>
