<svg width="34" height="32" viewBox="0 0 34 32" fill="none" xmlns="http://www.w3.org/2000/svg">
<g clip-path="url(#clip0_1070_683)">
<path d="M33.42 12.23V20.2C33.42 21.1 32.69 21.84 31.78 21.84H25.41V28.24C25.41 29.84 24.11 31.14 22.51 31.14H10.9C9.3 31.14 8 29.84 8 28.24V21.84H1.64C0.74 21.84 0 21.11 0 20.2V12.23C0 11.33 0.73 10.59 1.64 10.59H3C1.77 9.91 0.93 8.62 0.93 7.12C0.93 4.92 2.71 3.13 4.91 3.13C7.11 3.13 8.89 4.91 8.89 7.12C8.89 8.62 8.05 9.92 6.82 10.59H8.17C9.07 10.59 9.81 11.32 9.81 12.23V13.46C10.15 13.32 10.52 13.24 10.91 13.24H13.31C11.13 12.04 9.64 9.74 9.64 7.07C9.64 3.16 12.81 0 16.71 0C20.61 0 23.78 3.17 23.78 7.07C23.78 9.74 22.29 12.03 20.11 13.24H22.51C22.9 13.24 23.27 13.32 23.61 13.46V12.23C23.61 11.33 24.34 10.59 25.25 10.59H26.6C25.37 9.91 24.53 8.62 24.53 7.12C24.53 4.92 26.31 3.13 28.51 3.13C30.71 3.13 32.49 4.91 32.49 7.12C32.49 8.62 31.65 9.92 30.42 10.59H31.77C32.68 10.59 33.41 11.32 33.41 12.23H33.42Z" fill="white"/>
</g>
<defs>
<clipPath id="clip0_1070_683">
<rect width="33.42" height="31.13" fill="white"/>
</clipPath>
</defs>
</svg>
