<svg width="109" height="123" viewBox="0 0 109 123" fill="none" xmlns="http://www.w3.org/2000/svg">
<path d="M56.0735 0C62.6064 0 67.9837 4.94756 68.6629 11.3001C64.2283 15.8569 61.5 22.0804 61.5 28.9412C61.5 42.927 72.8377 54.2647 86.8235 54.2647C89.3391 54.2647 91.7689 53.8979 94.0626 53.2149L94.0588 83.2059H95.8676C102.861 83.2059 108.529 88.8747 108.529 95.8677C108.529 102.861 102.861 108.529 95.8676 108.529L74.7346 108.532C71.7541 116.961 63.7146 123 54.2647 123C44.8148 123 36.7753 116.961 33.7948 108.532L12.6618 108.529C5.66886 108.529 0 102.861 0 95.8677C0 88.8747 5.66886 83.2059 12.6618 83.2059H14.4706V50.6471C14.4706 33.7744 24.9714 19.3544 39.7943 13.5657L39.7941 12.6618C39.7941 5.90196 45.0914 0.379374 51.7612 0.0187131L52.4559 0H56.0735ZM86.8235 10.8529C96.8134 10.8529 104.912 18.9513 104.912 28.9412C104.912 38.931 96.8134 47.0294 86.8235 47.0294C76.8337 47.0294 68.7353 38.931 68.7353 28.9412C68.7353 18.9513 76.8337 10.8529 86.8235 10.8529ZM56.0735 7.23529H52.4559C49.8621 7.23529 47.6933 9.05517 47.1568 11.4877C49.4668 11.0697 51.8404 10.8529 54.2647 10.8529C56.689 10.8529 59.0626 11.0697 61.3673 11.4849C60.8361 9.05514 58.6673 7.23529 56.0735 7.23529Z" fill="white"/>
</svg>
