<svg width="20" height="20" viewBox="0 0 20 20" fill="none" xmlns="http://www.w3.org/2000/svg">
<path d="M8.33604 6.73078C8.46136 6.73078 8.56307 6.62616 8.56307 6.49726V3.69506C8.56307 3.56616 8.46136 3.46155 8.33604 3.46155C8.21072 3.46155 8.10901 3.56616 8.10901 3.69506V6.49726C8.10901 6.62616 8.21072 6.73078 8.33604 6.73078Z" fill="#525252" stroke="#525252" stroke-width="0.3"/>
<path d="M6.9738 6.73078C7.09912 6.73078 7.20082 6.62616 7.20082 6.49726V3.69506C7.20082 3.56616 7.09912 3.46155 6.9738 3.46155C6.84847 3.46155 6.74677 3.56616 6.74677 3.69506V6.49726C6.74677 6.62616 6.84847 6.73078 6.9738 6.73078Z" fill="#525252" stroke="#525252" stroke-width="0.3"/>
<path d="M9.69821 3.46155C9.57289 3.46155 9.47118 3.56616 9.47118 3.69506V6.73078C9.47118 7.52147 8.98488 8.22902 8.26066 8.49243C8.1476 8.53353 8.08812 8.65776 8.12035 8.77498C8.11536 8.79413 8.109 8.81234 8.109 8.83243V15.6044C8.109 15.8617 7.90513 16.0714 7.65494 16.0714C7.40476 16.0714 7.20088 15.8617 7.20088 15.6044V8.83243C7.20088 8.81468 7.19453 8.79927 7.19135 8.78292C7.22767 8.66383 7.16728 8.53539 7.0515 8.49336C6.32591 8.23042 5.8387 7.52193 5.8387 6.73078V3.69506C5.8387 3.56616 5.73699 3.46155 5.61167 3.46155C5.48635 3.46155 5.38464 3.56616 5.38464 3.69506V6.73078C5.38464 7.66158 5.9277 8.4943 6.74682 8.86372V15.6044C6.74682 16.1195 7.15411 16.5385 7.65494 16.5385C8.15577 16.5385 8.56306 16.1195 8.56306 15.6044V8.86372C9.38219 8.4943 9.92524 7.66158 9.92524 6.73078V3.69506C9.92524 3.56616 9.82353 3.46155 9.69821 3.46155Z" fill="#525252" stroke="#525252" stroke-width="0.3"/>
<path d="M13.0364 3.46155C12.5728 3.46155 12.1705 3.80108 12.0797 4.26811L11.0549 9.53765C10.9882 9.88185 11.074 10.2354 11.2901 10.5067C11.5063 10.7781 11.8264 10.9341 12.1678 10.9341H12.4225C12.5479 10.9341 12.6496 10.8295 12.6496 10.7006C12.6496 10.5717 12.5479 10.467 12.4225 10.467H12.1678C11.963 10.467 11.771 10.3736 11.6411 10.2106C11.5112 10.0476 11.4599 9.83608 11.4999 9.62919L12.5243 4.35965C12.5733 4.10979 12.7885 3.92858 13.0364 3.92858C13.3239 3.92858 13.5577 4.1691 13.5577 4.46473V15.6044C13.5577 15.8617 13.3538 16.0714 13.1036 16.0714C12.8534 16.0714 12.6496 15.8617 12.6496 15.6044V12.1017C12.6496 11.9728 12.5479 11.8681 12.4225 11.8681C12.2972 11.8681 12.1955 11.9728 12.1955 12.1017V15.6044C12.1955 16.1195 12.6028 16.5385 13.1036 16.5385C13.6045 16.5385 14.0118 16.1195 14.0118 15.6044V4.46473C14.0118 3.91177 13.574 3.46155 13.0364 3.46155Z" fill="#525252" stroke="#525252" stroke-width="0.3"/>
<path d="M8.33604 6.73078C8.46136 6.73078 8.56307 6.62616 8.56307 6.49726V3.69506C8.56307 3.56616 8.46136 3.46155 8.33604 3.46155C8.21072 3.46155 8.10901 3.56616 8.10901 3.69506V6.49726C8.10901 6.62616 8.21072 6.73078 8.33604 6.73078Z" fill="#525252" stroke="#525252" stroke-width="0.3"/>
<path d="M6.9738 6.73078C7.09912 6.73078 7.20082 6.62616 7.20082 6.49726V3.69506C7.20082 3.56616 7.09912 3.46155 6.9738 3.46155C6.84847 3.46155 6.74677 3.56616 6.74677 3.69506V6.49726C6.74677 6.62616 6.84847 6.73078 6.9738 6.73078Z" fill="#525252" stroke="#525252" stroke-width="0.3"/>
<path d="M9.69821 3.46155C9.57289 3.46155 9.47118 3.56616 9.47118 3.69506V6.73078C9.47118 7.52147 8.98488 8.22902 8.26066 8.49243C8.1476 8.53353 8.08812 8.65776 8.12035 8.77498C8.11536 8.79413 8.109 8.81234 8.109 8.83243V15.6044C8.109 15.8617 7.90513 16.0714 7.65494 16.0714C7.40476 16.0714 7.20088 15.8617 7.20088 15.6044V8.83243C7.20088 8.81468 7.19453 8.79927 7.19135 8.78292C7.22767 8.66383 7.16728 8.53539 7.0515 8.49336C6.32591 8.23042 5.8387 7.52193 5.8387 6.73078V3.69506C5.8387 3.56616 5.73699 3.46155 5.61167 3.46155C5.48635 3.46155 5.38464 3.56616 5.38464 3.69506V6.73078C5.38464 7.66158 5.9277 8.4943 6.74682 8.86372V15.6044C6.74682 16.1195 7.15411 16.5385 7.65494 16.5385C8.15577 16.5385 8.56306 16.1195 8.56306 15.6044V8.86372C9.38219 8.4943 9.92524 7.66158 9.92524 6.73078V3.69506C9.92524 3.56616 9.82353 3.46155 9.69821 3.46155Z" fill="#525252" stroke="#525252" stroke-width="0.3"/>
<path d="M13.0364 3.46155C12.5728 3.46155 12.1705 3.80108 12.0797 4.26811L11.0549 9.53765C10.9882 9.88185 11.074 10.2354 11.2901 10.5067C11.5063 10.7781 11.8264 10.9341 12.1678 10.9341H12.4225C12.5479 10.9341 12.6496 10.8295 12.6496 10.7006C12.6496 10.5717 12.5479 10.467 12.4225 10.467H12.1678C11.963 10.467 11.771 10.3736 11.6411 10.2106C11.5112 10.0476 11.4599 9.83608 11.4999 9.62919L12.5243 4.35965C12.5733 4.10979 12.7885 3.92858 13.0364 3.92858C13.3239 3.92858 13.5577 4.1691 13.5577 4.46473V15.6044C13.5577 15.8617 13.3538 16.0714 13.1036 16.0714C12.8534 16.0714 12.6496 15.8617 12.6496 15.6044V12.1017C12.6496 11.9728 12.5479 11.8681 12.4225 11.8681C12.2972 11.8681 12.1955 11.9728 12.1955 12.1017V15.6044C12.1955 16.1195 12.6028 16.5385 13.1036 16.5385C13.6045 16.5385 14.0118 16.1195 14.0118 15.6044V4.46473C14.0118 3.91177 13.574 3.46155 13.0364 3.46155Z" fill="#525252" stroke="#525252" stroke-width="0.3"/>
</svg>
