<svg width="20" height="20" viewBox="0 0 20 20" fill="none" xmlns="http://www.w3.org/2000/svg">
<rect width="20" height="20" rx="10" fill="#D7EEFF"/>
<path d="M8.38458 12.1539C8.84248 12.4933 9.39937 12.6923 9.99997 12.6923C10.6006 12.6923 11.1574 12.4933 11.6154 12.1539" stroke="#525252" stroke-width="1.1" stroke-linecap="round"/>
<path d="M11.6154 10C11.9127 10 12.1538 9.63839 12.1538 9.19231C12.1538 8.74624 11.9127 8.38462 11.6154 8.38462C11.318 8.38462 11.0769 8.74624 11.0769 9.19231C11.0769 9.63839 11.318 10 11.6154 10Z" fill="#525252"/>
<path d="M8.38459 10C8.68198 10 8.92305 9.63839 8.92305 9.19231C8.92305 8.74624 8.68198 8.38462 8.38459 8.38462C8.08721 8.38462 7.84613 8.74624 7.84613 9.19231C7.84613 9.63839 8.08721 10 8.38459 10Z" fill="#525252"/>
<path d="M15.3846 10C15.3846 12.5383 15.3846 13.8075 14.596 14.596C13.8075 15.3846 12.5383 15.3846 9.99997 15.3846C7.46164 15.3846 6.19247 15.3846 5.40392 14.596C4.61536 13.8075 4.61536 12.5383 4.61536 10C4.61536 7.46167 4.61536 6.1925 5.40392 5.40395C6.19247 4.61539 7.46164 4.61539 9.99997 4.61539C12.5383 4.61539 13.8075 4.61539 14.596 5.40395C15.1204 5.92827 15.2961 6.66507 15.3549 7.84616" stroke="#525252" stroke-width="1.1" stroke-linecap="round"/>
</svg>
