<svg width="26" height="26" viewBox="0 0 26 26" fill="none" xmlns="http://www.w3.org/2000/svg">
<rect width="26" height="26" rx="13" fill="#D7EEFF"/>
<path d="M10.9 15.8C11.4953 16.2412 12.2192 16.5 13 16.5C13.7808 16.5 14.5047 16.2412 15.1 15.8" stroke="#525252" stroke-width="1.3" stroke-linecap="round"/>
<path d="M15.1 13C15.4866 13 15.8 12.5299 15.8 11.95C15.8 11.3701 15.4866 10.9 15.1 10.9C14.7134 10.9 14.4 11.3701 14.4 11.95C14.4 12.5299 14.7134 13 15.1 13Z" fill="#525252"/>
<path d="M10.9 13C11.2866 13 11.6 12.5299 11.6 11.95C11.6 11.3701 11.2866 10.9 10.9 10.9C10.5134 10.9 10.2 11.3701 10.2 11.95C10.2 12.5299 10.5134 13 10.9 13Z" fill="#525252"/>
<path d="M20 13C20 16.2998 20 17.9498 18.9748 18.9748C17.9498 20 16.2998 20 13 20C9.70017 20 8.05025 20 7.02513 18.9748C6 17.9498 6 16.2998 6 13C6 9.70017 6 8.05025 7.02513 7.02513C8.05025 6 9.70017 6 13 6C16.2998 6 17.9498 6 18.9748 7.02513C19.6565 7.70675 19.8849 8.66458 19.9614 10.2" stroke="#525252" stroke-width="1.3" stroke-linecap="round"/>
</svg>
