<svg width="26" height="26" viewBox="0 0 26 26" fill="none" xmlns="http://www.w3.org/2000/svg">
<rect width="26" height="26" rx="13" fill="#FFF5C2"/>
<path d="M19.389 11.5941C20.3898 12.7768 20.1817 14.2232 20.1818 15.4998C20.1818 19.0153 15.4416 19.9998 12.9998 19.9998C10.5579 19.9998 5.81787 19.0153 5.81787 15.4998C5.81788 14.2232 5.6098 12.7768 6.6105 11.5941M19.389 11.5941C19.214 11.3872 19.002 11.1884 18.7453 10.9999M19.389 11.5941C20.019 11.957 20.18 10.5991 20.1818 10.1562V8.46881C20.1818 7.00634 19.1763 6.5001 18.3145 6.5001C17.4526 6.5001 15.7289 7.90622 15.1544 7.90622C14.4649 7.90622 14.3321 7.7657 12.9998 7.7657C11.6675 7.7657 11.5347 7.90622 10.8452 7.90622C10.2707 7.90622 8.547 6.5 7.68518 6.5C6.82334 6.5 5.81788 7.00624 5.81788 8.46871V10.1562C5.81962 10.5991 5.98057 11.957 6.6105 11.5941M6.6105 11.5941C6.78558 11.3872 6.99764 11.1884 7.25429 10.9999" stroke="#525252" stroke-width="1.152" stroke-linecap="round"/>
<path d="M13.7432 16.3998C13.7432 16.5551 13.4183 16.6811 13.0175 16.6811C12.6166 16.6811 12.2916 16.5551 12.2916 16.3998C12.2916 16.2445 12.6166 16.1186 13.0175 16.1186C13.4183 16.1186 13.7432 16.2445 13.7432 16.3998Z" stroke="#525252" stroke-width="1.152"/>
<path d="M16.1497 14.2343C16.1497 14.6225 15.9548 14.9374 15.7142 14.9374C15.4737 14.9374 15.2788 14.6225 15.2788 14.2343C15.2788 13.8459 15.4737 13.5311 15.7142 13.5311C15.9548 13.5311 16.1497 13.8459 16.1497 14.2343Z" stroke="#525252" stroke-width="1.152"/>
<path d="M10.7499 14.2343C10.7499 14.6225 10.5549 14.9374 10.3144 14.9374C10.0739 14.9374 9.87891 14.6225 9.87891 14.2343C9.87891 13.8459 10.0739 13.5311 10.3144 13.5311C10.5549 13.5311 10.7499 13.8459 10.7499 14.2343Z" stroke="#525252" stroke-width="1.152"/>
<path d="M22 15.9217C21.5645 15.6404 19.6774 14.9373 18.9517 14.9373" stroke="#525252" stroke-width="1.152" stroke-linecap="round"/>
<path d="M20.5482 18.1717C20.1128 17.8904 19.0966 17.1873 18.3708 17.1873" stroke="#525252" stroke-width="1.152" stroke-linecap="round"/>
<path d="M4 15.9217C4.43547 15.6404 6.32254 14.9373 7.04833 14.9373" stroke="#525252" stroke-width="1.152" stroke-linecap="round"/>
<path d="M5.45142 18.1717C5.8869 17.8904 6.90301 17.1873 7.6288 17.1873" stroke="#525252" stroke-width="1.152" stroke-linecap="round"/>
</svg>
