<svg width="20" height="20" viewBox="0 0 20 20" fill="none" xmlns="http://www.w3.org/2000/svg">
<path d="M15.916 8.88349C16.8426 9.97866 16.6499 11.3179 16.65 12.5C16.65 15.7552 12.2609 16.6667 9.99989 16.6667C7.73886 16.6667 3.34984 15.7552 3.34984 12.5C3.34985 11.3179 3.15718 9.97866 4.08377 8.88349M15.916 8.88349C15.7539 8.69191 15.5576 8.50782 15.3199 8.33332M15.916 8.88349C16.4993 9.21949 16.6483 7.96223 16.65 7.55207V5.98966C16.65 4.6355 15.719 4.16675 14.921 4.16675C14.123 4.16675 12.5269 5.46874 11.9949 5.46874C11.3565 5.46874 11.2336 5.33862 9.99989 5.33862C8.7663 5.33862 8.6433 5.46874 8.0049 5.46874C7.47289 5.46874 5.87685 4.16666 5.07885 4.16666C4.28085 4.16666 3.34985 4.63541 3.34985 5.98957V7.55207C3.35145 7.96223 3.50049 9.21949 4.08377 8.88349M4.08377 8.88349C4.24588 8.69191 4.44224 8.50782 4.67988 8.33332" stroke="#525252" stroke-width="0.9888" stroke-linecap="round"/>
<path d="M10.6883 13.3333C10.6883 13.4772 10.3874 13.5938 10.0163 13.5938C9.64509 13.5938 9.34418 13.4772 9.34418 13.3333C9.34418 13.1895 9.64509 13.0729 10.0163 13.0729C10.3874 13.0729 10.6883 13.1895 10.6883 13.3333Z" stroke="#525252" stroke-width="0.9888"/>
<path d="M12.9166 11.3282C12.9166 11.6877 12.7361 11.9792 12.5134 11.9792C12.2907 11.9792 12.1102 11.6877 12.1102 11.3282C12.1102 10.9686 12.2907 10.6771 12.5134 10.6771C12.7361 10.6771 12.9166 10.9686 12.9166 11.3282Z" stroke="#525252" stroke-width="0.9888"/>
<path d="M7.91662 11.3282C7.91662 11.6877 7.73609 11.9792 7.51339 11.9792C7.29069 11.9792 7.11017 11.6877 7.11017 11.3282C7.11017 10.9686 7.29069 10.6771 7.51339 10.6771C7.73609 10.6771 7.91662 10.9686 7.91662 11.3282Z" stroke="#525252" stroke-width="0.9888"/>
<path d="M18.3336 12.8907C17.9303 12.6302 16.183 11.9792 15.511 11.9792" stroke="#525252" stroke-width="0.9888" stroke-linecap="round"/>
<path d="M16.9892 14.974C16.586 14.7135 15.6451 14.0625 14.9731 14.0625" stroke="#525252" stroke-width="0.9888" stroke-linecap="round"/>
<path d="M1.6666 12.8907C2.06982 12.6302 3.81714 11.9792 4.48918 11.9792" stroke="#525252" stroke-width="0.9888" stroke-linecap="round"/>
<path d="M3.01059 14.974C3.41382 14.7135 4.35468 14.0625 5.02672 14.0625" stroke="#525252" stroke-width="0.9888" stroke-linecap="round"/>
</svg>
