<svg width="26" height="26" viewBox="0 0 26 26" fill="none" xmlns="http://www.w3.org/2000/svg">
<rect width="26" height="26" rx="13" fill="#EDEDED"/>
<path d="M19.7645 8.73955L21.6708 6.83332L19.8375 5L17.9312 6.90623V7.79164L16.0562 9.69787C15.3525 9.16201 14.5023 8.85317 13.6188 8.81246C13.082 8.78642 12.5456 8.87203 12.0436 9.06388C11.5415 9.25573 11.0848 9.54964 10.7021 9.92704C10.2727 10.3249 9.9197 10.798 9.66047 11.3229C9.61321 11.46 9.53056 11.5821 9.42089 11.677C9.28588 11.692 9.14964 11.692 9.01464 11.677C8.5486 11.6048 8.07201 11.6467 7.62571 11.7991C7.17941 11.9515 6.77673 12.2099 6.45217 12.552C5.96747 13.0342 5.58842 13.612 5.33915 14.2486C5.08988 14.8852 4.97583 15.5668 5.00426 16.2499C5.0731 17.6966 5.69125 19.0625 6.73264 20.069C7.77403 21.0756 9.16019 21.6469 10.6084 21.6665C11.2627 21.6718 11.9116 21.5475 12.5177 21.3007C13.1237 21.054 13.675 20.6898 14.1396 20.229C14.4799 19.9034 14.7363 19.5003 14.8868 19.054C15.0374 18.6078 15.0777 18.1317 15.0042 17.6665C14.9891 17.5315 14.9891 17.3953 15.0042 17.2603C15.1009 17.1527 15.2225 17.0704 15.3583 17.0207C15.8856 16.7655 16.3594 16.4119 16.7542 15.9791C17.1313 15.5984 17.4251 15.1434 17.617 14.6431C17.8088 14.1428 17.8946 13.6081 17.8687 13.0728C17.8348 12.1848 17.5254 11.3292 16.9833 10.6249L18.8895 8.71871L19.7645 8.73955ZM16.5875 13.1041C16.6076 13.4649 16.5512 13.826 16.422 14.1635C16.2927 14.501 16.0935 14.8073 15.8375 15.0624C15.5474 15.3994 15.1933 15.6756 14.7958 15.8749C14.5236 15.984 14.2783 16.1511 14.0771 16.3645C13.9155 16.5547 13.7995 16.7794 13.7381 17.0213C13.6767 17.2632 13.6715 17.516 13.7229 17.7603C13.7833 18.0433 13.769 18.3372 13.6813 18.613C13.5936 18.8888 13.4357 19.137 13.2229 19.3332C12.4398 20.0516 11.4042 20.4308 10.3423 20.3878C9.28051 20.3449 8.27885 19.8833 7.55632 19.104C6.77386 18.3334 6.31234 17.295 6.26467 16.1978C6.23955 15.6908 6.31906 15.1841 6.49827 14.7092C6.67748 14.2343 6.95254 13.8014 7.30632 13.4374C7.50314 13.2255 7.75141 13.0681 8.02701 12.9805C8.30261 12.8929 8.59619 12.8781 8.87923 12.9374C9.12346 12.9896 9.37643 12.9848 9.61851 12.9234C9.86059 12.862 10.0852 12.7456 10.275 12.5833C10.4874 12.3789 10.6573 12.1347 10.775 11.8645C10.9655 11.4644 11.2389 11.1093 11.5771 10.8229C11.8326 10.5674 12.139 10.3685 12.4764 10.2393C12.8138 10.1101 13.1746 10.0534 13.5354 10.0729C14.1006 10.0999 14.6479 10.2799 15.1187 10.5937L12.7125 13.052L13.6292 13.9687L16.0667 11.5208C16.3804 11.9917 16.5604 12.5389 16.5875 13.1041Z" fill="#525252"/>
<path d="M11.0771 13.677C10.8288 13.6699 10.5816 13.7133 10.3506 13.8046C10.1196 13.896 9.90962 14.0333 9.73331 14.2082C9.37901 14.5636 9.18005 15.0449 9.18005 15.5468C9.18005 16.0486 9.37901 16.5299 9.73331 16.8853C9.91787 17.081 10.1408 17.2365 10.3881 17.3422C10.6354 17.448 10.9018 17.5016 11.1708 17.4999C11.4104 17.5006 11.6479 17.454 11.8695 17.3629C12.0912 17.2717 12.2926 17.1377 12.4625 16.9686C12.8168 16.6133 13.0157 16.1319 13.0157 15.6301C13.0157 15.1283 12.8168 14.6469 12.4625 14.2916C12.0985 13.9138 11.6013 13.6933 11.0771 13.677ZM11.5666 16.0415C11.4386 16.1449 11.2768 16.1973 11.1125 16.1886C10.9481 16.1798 10.7928 16.1106 10.6764 15.9942C10.5601 15.8779 10.4909 15.7226 10.4821 15.5582C10.4734 15.3939 10.5258 15.2321 10.6291 15.1041C10.7367 15.004 10.8781 14.9482 11.025 14.9478C11.2004 14.9617 11.3658 15.0352 11.4937 15.1561C11.557 15.2092 11.6091 15.2744 11.6471 15.3477C11.6851 15.4211 11.7081 15.5013 11.7149 15.5836C11.7217 15.666 11.712 15.7488 11.6866 15.8274C11.6612 15.906 11.6204 15.9788 11.5666 16.0415Z" fill="#525252"/>
</svg>
