<svg width="20" height="20" viewBox="0 0 20 20" fill="none" xmlns="http://www.w3.org/2000/svg">
<path d="M15.2035 6.72273L16.6698 5.2564L15.2596 3.84615L13.7933 5.31249V5.99357L12.351 7.4599C11.8097 7.0477 11.1556 6.81013 10.476 6.77882C10.0631 6.75879 9.65046 6.82464 9.26428 6.97221C8.87811 7.11979 8.52675 7.34587 8.23241 7.63618C7.90211 7.94225 7.63055 8.30614 7.43114 8.70989C7.39478 8.81535 7.33121 8.90934 7.24684 8.98232C7.143 8.99383 7.03819 8.99383 6.93435 8.98232C6.57585 8.92679 6.20924 8.95903 5.86594 9.07625C5.52263 9.19348 5.21287 9.3922 4.96321 9.65539C4.59037 10.0263 4.29879 10.4708 4.10705 10.9605C3.9153 11.4502 3.82757 11.9745 3.84944 12.4999C3.90239 13.6127 4.3779 14.6635 5.17896 15.4377C5.98003 16.212 7.04631 16.6515 8.1603 16.6665C8.66363 16.6706 9.16278 16.575 9.62899 16.3852C10.0952 16.1954 10.5192 15.9152 10.8766 15.5608C11.1384 15.3103 11.3356 15.0002 11.4514 14.657C11.5672 14.3137 11.5982 13.9475 11.5417 13.5896C11.5301 13.4858 11.5301 13.381 11.5417 13.2772C11.6161 13.1944 11.7096 13.1311 11.8141 13.0929C12.2197 12.8965 12.5842 12.6246 12.8878 12.2916C13.1779 11.9988 13.4039 11.6488 13.5515 11.2639C13.6991 10.8791 13.7651 10.4677 13.7452 10.056C13.7191 9.37289 13.4811 8.71479 13.0641 8.17303L14.5304 6.7067L15.2035 6.72273ZM12.7596 10.0801C12.7751 10.3576 12.7317 10.6354 12.6323 10.895C12.5329 11.1546 12.3796 11.3903 12.1827 11.5865C11.9595 11.8457 11.6872 12.0581 11.3814 12.2115C11.172 12.2954 10.9833 12.4239 10.8285 12.5881C10.7042 12.7344 10.615 12.9072 10.5678 13.0933C10.5206 13.2794 10.5166 13.4739 10.5561 13.6618C10.6026 13.8795 10.5915 14.1055 10.5241 14.3177C10.4566 14.5298 10.3351 14.7208 10.1715 14.8717C9.56911 15.4243 8.77246 15.716 7.95566 15.6829C7.13886 15.6499 6.36835 15.2949 5.81256 14.6954C5.21067 14.1026 4.85566 13.3038 4.81898 12.4599C4.79966 12.0699 4.86083 11.6801 4.99868 11.3148C5.13653 10.9495 5.34812 10.6165 5.62026 10.3365C5.77166 10.1735 5.96263 10.0524 6.17463 9.98503C6.38663 9.91764 6.61246 9.90621 6.83018 9.95186C7.01805 9.99202 7.21265 9.98833 7.39886 9.94108C7.58507 9.89383 7.75789 9.8043 7.90389 9.67943C8.06722 9.52224 8.19792 9.33435 8.2885 9.12655C8.43502 8.81873 8.64533 8.5456 8.90548 8.32528C9.10199 8.12873 9.33769 7.97578 9.59724 7.87638C9.85678 7.77698 10.1344 7.73336 10.4119 7.74836C10.8466 7.76918 11.2676 7.90765 11.6298 8.149L9.77887 10.04L10.484 10.7451L12.359 8.86213C12.6003 9.22435 12.7388 9.6453 12.7596 10.0801Z" fill="#525252"/>
<path d="M8.52084 10.5208C8.32985 10.5153 8.13975 10.5487 7.96206 10.619C7.78438 10.6892 7.62282 10.7948 7.4872 10.9294C7.21466 11.2028 7.06161 11.573 7.06161 11.9591C7.06161 12.3451 7.21466 12.7153 7.4872 12.9887C7.62916 13.1392 7.80061 13.2589 7.99086 13.3402C8.1811 13.4215 8.38606 13.4628 8.59296 13.4614C8.7773 13.462 8.95995 13.4262 9.13044 13.356C9.30093 13.2859 9.45592 13.1829 9.58654 13.0528C9.85908 12.7794 10.0121 12.4092 10.0121 12.0232C10.0121 11.6371 9.85908 11.2669 9.58654 10.9935C9.30658 10.7029 8.92415 10.5333 8.52084 10.5208ZM8.89744 12.3397C8.79894 12.4192 8.6745 12.4595 8.54809 12.4527C8.42167 12.446 8.3022 12.3928 8.21268 12.3033C8.12316 12.2138 8.06992 12.0943 8.0632 11.9679C8.05649 11.8414 8.09677 11.717 8.1763 11.6185C8.25903 11.5415 8.36777 11.4986 8.48078 11.4983C8.61574 11.509 8.74298 11.5656 8.84135 11.6586C8.89004 11.6994 8.93014 11.7495 8.95934 11.806C8.98854 11.8624 9.00626 11.9241 9.01148 11.9874C9.0167 12.0507 9.0093 12.1145 8.98973 12.175C8.97015 12.2354 8.93879 12.2914 8.89744 12.3397Z" fill="#525252"/>
</svg>
