<svg width="26" height="26" viewBox="0 0 26 26" fill="none" xmlns="http://www.w3.org/2000/svg">
<rect width="26" height="26" rx="13" fill="#DDFFC7"/>
<path d="M10.8368 8.75C10.9997 8.75 11.1319 8.614 11.1319 8.44643V4.80357C11.1319 4.636 10.9997 4.5 10.8368 4.5C10.6738 4.5 10.5416 4.636 10.5416 4.80357V8.44643C10.5416 8.614 10.6738 8.75 10.8368 8.75Z" fill="#525252" stroke="#525252" stroke-width="0.5"/>
<path d="M9.06589 8.75C9.22881 8.75 9.36103 8.614 9.36103 8.44643V4.80357C9.36103 4.636 9.22881 4.5 9.06589 4.5C8.90297 4.5 8.77075 4.636 8.77075 4.80357V8.44643C8.77075 8.614 8.90297 8.75 9.06589 8.75Z" fill="#525252" stroke="#525252" stroke-width="0.5"/>
<path d="M12.6076 4.5C12.4447 4.5 12.3125 4.636 12.3125 4.80357V8.75C12.3125 9.77789 11.6803 10.6977 10.7388 11.0401C10.5918 11.0936 10.5145 11.2551 10.5564 11.4075C10.5499 11.4324 10.5417 11.456 10.5417 11.4821V20.2857C10.5417 20.6203 10.2766 20.8929 9.95139 20.8929C9.62615 20.8929 9.36111 20.6203 9.36111 20.2857V11.4821C9.36111 11.4591 9.35285 11.439 9.34872 11.4178C9.39594 11.263 9.31743 11.096 9.16691 11.0414C8.22365 10.6995 7.59028 9.7785 7.59028 8.75V4.80357C7.59028 4.636 7.45806 4.5 7.29514 4.5C7.13222 4.5 7 4.636 7 4.80357V8.75C7 9.96004 7.70597 11.0426 8.77083 11.5228V20.2857C8.77083 20.9554 9.30031 21.5 9.95139 21.5C10.6025 21.5 11.1319 20.9554 11.1319 20.2857V11.5228C12.1968 11.0426 12.9028 9.96004 12.9028 8.75V4.80357C12.9028 4.636 12.7706 4.5 12.6076 4.5Z" fill="#525252" stroke="#525252" stroke-width="0.5"/>
<path d="M16.9474 4.5C16.3447 4.5 15.8217 4.94139 15.7037 5.54854L14.3714 12.3989C14.2847 12.8464 14.3962 13.306 14.6772 13.6587C14.9582 14.0115 15.3743 14.2143 15.8182 14.2143H16.1493C16.3123 14.2143 16.4445 14.0783 16.4445 13.9107C16.4445 13.7431 16.3123 13.6071 16.1493 13.6071H15.8182C15.552 13.6071 15.3023 13.4857 15.1335 13.2738C14.9647 13.0619 14.898 12.7869 14.9499 12.5179L16.2816 5.66754C16.3453 5.34271 16.6251 5.10714 16.9474 5.10714C17.3211 5.10714 17.625 5.41982 17.625 5.80414V20.2857C17.625 20.6203 17.36 20.8929 17.0348 20.8929C16.7095 20.8929 16.4445 20.6203 16.4445 20.2857V15.7321C16.4445 15.5646 16.3123 15.4286 16.1493 15.4286C15.9864 15.4286 15.8542 15.5646 15.8542 15.7321V20.2857C15.8542 20.9554 16.3837 21.5 17.0348 21.5C17.6858 21.5 18.2153 20.9554 18.2153 20.2857V5.80414C18.2153 5.08529 17.6463 4.5 16.9474 4.5Z" fill="#525252" stroke="#525252" stroke-width="0.5"/>
<path d="M10.8368 8.75C10.9997 8.75 11.1319 8.614 11.1319 8.44643V4.80357C11.1319 4.636 10.9997 4.5 10.8368 4.5C10.6738 4.5 10.5416 4.636 10.5416 4.80357V8.44643C10.5416 8.614 10.6738 8.75 10.8368 8.75Z" fill="#525252" stroke="#525252" stroke-width="0.5"/>
<path d="M9.06589 8.75C9.22881 8.75 9.36103 8.614 9.36103 8.44643V4.80357C9.36103 4.636 9.22881 4.5 9.06589 4.5C8.90297 4.5 8.77075 4.636 8.77075 4.80357V8.44643C8.77075 8.614 8.90297 8.75 9.06589 8.75Z" fill="#525252" stroke="#525252" stroke-width="0.5"/>
<path d="M12.6076 4.5C12.4447 4.5 12.3125 4.636 12.3125 4.80357V8.75C12.3125 9.77789 11.6803 10.6977 10.7388 11.0401C10.5918 11.0936 10.5145 11.2551 10.5564 11.4075C10.5499 11.4324 10.5417 11.456 10.5417 11.4821V20.2857C10.5417 20.6203 10.2766 20.8929 9.95139 20.8929C9.62615 20.8929 9.36111 20.6203 9.36111 20.2857V11.4821C9.36111 11.4591 9.35285 11.439 9.34872 11.4178C9.39594 11.263 9.31743 11.096 9.16691 11.0414C8.22365 10.6995 7.59028 9.7785 7.59028 8.75V4.80357C7.59028 4.636 7.45806 4.5 7.29514 4.5C7.13222 4.5 7 4.636 7 4.80357V8.75C7 9.96004 7.70597 11.0426 8.77083 11.5228V20.2857C8.77083 20.9554 9.30031 21.5 9.95139 21.5C10.6025 21.5 11.1319 20.9554 11.1319 20.2857V11.5228C12.1968 11.0426 12.9028 9.96004 12.9028 8.75V4.80357C12.9028 4.636 12.7706 4.5 12.6076 4.5Z" fill="#525252" stroke="#525252" stroke-width="0.5"/>
<path d="M16.9474 4.5C16.3447 4.5 15.8217 4.94139 15.7037 5.54854L14.3714 12.3989C14.2847 12.8464 14.3962 13.306 14.6772 13.6587C14.9582 14.0115 15.3743 14.2143 15.8182 14.2143H16.1493C16.3123 14.2143 16.4445 14.0783 16.4445 13.9107C16.4445 13.7431 16.3123 13.6071 16.1493 13.6071H15.8182C15.552 13.6071 15.3023 13.4857 15.1335 13.2738C14.9647 13.0619 14.898 12.7869 14.9499 12.5179L16.2816 5.66754C16.3453 5.34271 16.6251 5.10714 16.9474 5.10714C17.3211 5.10714 17.625 5.41982 17.625 5.80414V20.2857C17.625 20.6203 17.36 20.8929 17.0348 20.8929C16.7095 20.8929 16.4445 20.6203 16.4445 20.2857V15.7321C16.4445 15.5646 16.3123 15.4286 16.1493 15.4286C15.9864 15.4286 15.8542 15.5646 15.8542 15.7321V20.2857C15.8542 20.9554 16.3837 21.5 17.0348 21.5C17.6858 21.5 18.2153 20.9554 18.2153 20.2857V5.80414C18.2153 5.08529 17.6463 4.5 16.9474 4.5Z" fill="#525252" stroke="#525252" stroke-width="0.5"/>
</svg>
