<svg width="181" height="81" viewBox="0 0 181 81" fill="none" xmlns="http://www.w3.org/2000/svg">
  <g clip-path="url(#clip0_270_251)">
    <path
      d="M7.73799 49.8307C7.98228 52.5215 8.66631 54.5847 9.79311 56.0174C11.8635 58.6194 15.4546 59.9174 20.5664 59.9174C23.611 59.9174 26.289 59.2684 28.6006 57.9674C30.9153 56.6664 32.0696 54.6582 32.0696 51.9368C32.0696 49.8735 31.1443 48.3031 29.2969 47.2286C28.1151 46.5705 25.7821 45.8082 22.2979 44.9419L15.7966 43.3286C11.6436 42.3123 8.58386 41.1766 6.61424 39.9215C3.09947 37.7388 1.34056 34.7205 1.34056 30.8633C1.34056 26.3205 2.99565 22.6439 6.30582 19.8307C9.61294 17.0205 14.0652 15.6154 19.6565 15.6154C26.97 15.6154 32.2437 17.7398 35.4775 21.9827C37.5021 24.6735 38.4854 27.5725 38.4243 30.6827H30.8207C30.668 28.8705 30.0114 27.2205 28.851 25.7327C26.9578 23.6235 23.6751 22.5674 19.006 22.5674C15.8913 22.5674 13.5339 23.149 11.9307 24.3092C10.3275 25.4694 9.52744 27.0062 9.52744 28.9103C9.52744 30.9949 10.581 32.6633 12.688 33.9154C13.9033 34.6592 15.6958 35.3174 18.0655 35.8837L23.4888 37.1847C29.3824 38.5898 33.3338 39.9521 35.337 41.2654C38.467 43.3286 40.0336 46.5735 40.0336 50.997C40.0336 55.4205 38.3938 58.9654 35.1202 62.0725C31.8436 65.1827 26.8539 66.7347 20.1511 66.7347C12.9353 66.7347 7.82655 65.1123 4.82174 61.8705C1.81693 58.6256 0.210703 54.6123 0 49.8307H7.73799Z"
      fill="#0066FF" />
    <path
      d="M83.4687 21.6643C87.7041 25.7847 89.8203 31.849 89.8203 39.8541C89.8203 47.8592 87.9545 53.9816 84.2229 59.0296C80.4914 64.0775 74.7016 66.6 66.8567 66.6C60.3127 66.6 55.1154 64.3683 51.2647 59.902C47.414 55.4357 45.4902 49.4418 45.4902 41.9143C45.4902 33.851 47.5179 27.4285 51.5762 22.65C55.6315 17.8714 61.0823 15.4806 67.9225 15.4806C74.0512 15.4806 79.2333 17.5408 83.4687 21.6643ZM78.4698 53.5836C80.4303 49.5367 81.4105 45.0367 81.4105 40.0806C81.4105 35.602 80.7021 31.9592 79.2882 29.152C77.0468 24.7316 73.1839 22.5245 67.6996 22.5245C62.832 22.5245 59.2959 24.4071 57.085 28.1694C54.8742 31.9316 53.7687 36.4714 53.7687 41.7857C53.7687 47.1 54.8742 51.1469 57.085 54.551C59.2959 57.9551 62.8045 59.6571 67.611 59.6571C72.8877 59.6571 76.5063 57.6337 78.4698 53.5898V53.5836Z"
      fill="#0066FF" />
    <path
      d="M129.946 49.8307C130.19 52.5215 130.874 54.5847 132.001 56.0174C134.071 58.6194 137.662 59.9174 142.777 59.9174C145.819 59.9174 148.5 59.2684 150.812 57.9674C153.123 56.6664 154.281 54.6582 154.281 51.9368C154.281 49.8735 153.355 48.3031 151.508 47.2286C150.326 46.5705 147.993 45.8082 144.509 44.9419L138.008 43.3286C133.855 42.3123 130.795 41.1766 128.825 39.9215C125.31 37.7388 123.552 34.7205 123.552 30.8633C123.552 26.3205 125.207 22.6439 128.514 19.8307C131.824 17.0205 136.273 15.6154 141.864 15.6154C149.178 15.6154 154.452 17.7398 157.685 21.9827C159.71 24.6735 160.693 27.5725 160.632 30.6827H153.029C152.876 28.8705 152.219 27.2205 151.059 25.7327C149.166 23.6235 145.883 22.5674 141.214 22.5674C138.099 22.5674 135.742 23.149 134.139 24.3092C132.535 25.4694 131.735 27.0062 131.735 28.9103C131.735 30.9949 132.789 32.6633 134.896 33.9154C136.111 34.6592 137.904 35.3174 140.273 35.8837L145.697 37.1847C151.59 38.5898 155.542 39.9521 157.545 41.2654C160.675 43.3286 162.241 46.5735 162.241 50.997C162.241 55.4205 160.602 58.9654 157.328 62.0725C154.052 65.1827 149.062 66.7347 142.362 66.7347C135.146 66.7347 130.037 65.1123 127.033 61.8705C124.028 58.6256 122.422 54.6123 122.211 49.8307H129.949H129.946Z"
      fill="#0066FF" />
    <path d="M105.146 0H127.683V3.58163H108.994V77.4184H127.683V81H105.146V0Z" fill="#DCE7F7" />
    <path d="M158.464 81V77.4184H177.152V3.58163H158.464V0H181V81H158.464Z" fill="#DCE7F7" />
  </g>
  <defs>
    <clipPath id="clip0_270_251">
      <rect width="181" height="81" fill="white" />
    </clipPath>
  </defs>
</svg>