<svg width="110" height="24" viewBox="0 0 110 24" fill="none" xmlns="http://www.w3.org/2000/svg">
<path d="M0.93934 10.9393C0.353553 11.5251 0.353553 12.4749 0.93934 13.0607L10.4853 22.6066C11.0711 23.1924 12.0208 23.1924 12.6066 22.6066C13.1924 22.0208 13.1924 21.0711 12.6066 20.4853L4.12132 12L12.6066 3.51472C13.1924 2.92893 13.1924 1.97918 12.6066 1.3934C12.0208 0.807612 11.0711 0.807612 10.4853 1.3934L0.93934 10.9393ZM109.061 13.0607C109.646 12.4749 109.646 11.5251 109.061 10.9393L99.5147 1.3934C98.9289 0.807612 97.9792 0.807612 97.3934 1.3934C96.8076 1.97918 96.8076 2.92893 97.3934 3.51472L105.879 12L97.3934 20.4853C96.8076 21.0711 96.8076 22.0208 97.3934 22.6066C97.9792 23.1924 98.9289 23.1924 99.5147 22.6066L109.061 13.0607ZM2 13.5H108V10.5H2V13.5Z" fill="#E9E9E9"/>
</svg>
